# xmcd CD database file
#
# Track frame offsets:
#	150
#	20527
#	45360
#
# Disc length: 872 seconds
#
# Revision: 0
# Processed by: cddbd v1.5PL3 Copyright (c) Steve Scherf et al.
# Submitted via: CDex 1.50beta10
#
DISCID=18036603
DTITLE=市井紗耶香 in CUBIC-CROSS - ずっとずっと
DYEAR=2003
DGENRE=JPop
TTITLE0=ずっとずっと
TTITLE1=journey
TTITLE2=ずっとずっと(Instrumental)
EXTD=YEAR: 2003
EXTT0=
EXTT1=
EXTT2=
PLAYORDER=
